<svg xmlns="http://www.w3.org/2000/svg" width="21.991" height="21.979" viewBox="0 0 21.991 21.979">
  <path id="Path_31" data-name="Path 31" d="M6537.053,6975.7h-16.34a2.829,2.829,0,0,1-2.826-2.815v-16.347a2.831,2.831,0,0,1,2.826-2.817h16.34a2.829,2.829,0,0,1,2.826,2.817v16.347A2.827,2.827,0,0,1,6537.053,6975.7Zm-14.8-12.566h-2.266v9.6a.874.874,0,0,0,.874.87h16.06a.873.873,0,0,0,.875-.87v-9.6h-2.283a6.709,6.709,0,0,1,.2,1.564,6.822,6.822,0,1,1-13.456-1.564Zm6.627-3.134a4.705,4.705,0,1,1-4.713,4.706A4.709,4.709,0,0,1,6528.883,6960Zm7.544-3.664h-1.994a.839.839,0,0,0-.836.835v1.992a.835.835,0,0,0,.836.831h1.994a.835.835,0,0,0,.835-.831v-1.992A.838.838,0,0,0,6536.427,6956.335Z" transform="translate(-6517.887 -6953.72)" fill="#fff" fill-rule="evenodd"/>
</svg>
