<svg xmlns="http://www.w3.org/2000/svg" width="187.293" height="69.55" viewBox="0 0 187.293 69.55">
  <path id="Path_58" data-name="Path 58" d="M19.3-37.578q6.948,0,10.783,3.661A12.928,12.928,0,0,1,34.34-25.6H29.509a10.054,10.054,0,0,0-3.275-5.6,10.379,10.379,0,0,0-6.885-2.067,11.041,11.041,0,0,0-8.728,3.8Q7.3-25.674,7.3-17.83q0,6.425,3,10.422t8.952,4A9.458,9.458,0,0,0,27.592-7.62a16.005,16.005,0,0,0,2.266-5.827h4.831A16.508,16.508,0,0,1,30.406-3.76Q26.048.946,18.652.946A15.513,15.513,0,0,1,7.944-2.914q-5.7-5.1-5.7-15.763,0-8.093,4.283-13.273Q11.156-37.578,19.3-37.578ZM40.242-26.67H44.5v4.607a10.179,10.179,0,0,1,2.565-3.275,6.651,6.651,0,0,1,4.707-1.93q.125,0,.423.025t1.021.1v4.731a6.7,6.7,0,0,0-.735-.1q-.336-.025-.735-.025a6.4,6.4,0,0,0-5.2,2.179,7.606,7.606,0,0,0-1.818,5.018V0H40.242Zm27.965-.6a12.166,12.166,0,0,1,5.5,1.332,10.149,10.149,0,0,1,4.059,3.449,11.9,11.9,0,0,1,1.793,4.707,30.793,30.793,0,0,1,.4,5.877H60.413a11.407,11.407,0,0,0,1.917,6.512,6.421,6.421,0,0,0,5.553,2.453,7.179,7.179,0,0,0,5.6-2.316A7.807,7.807,0,0,0,75.18-8.367h4.408A9.283,9.283,0,0,1,78.43-5.093a11.647,11.647,0,0,1-2.2,2.951A10.446,10.446,0,0,1,71.171.548a15.357,15.357,0,0,1-3.661.4,11.232,11.232,0,0,1-8.442-3.623Q55.607-6.3,55.607-12.825a15.329,15.329,0,0,1,3.486-10.434A11.5,11.5,0,0,1,68.208-27.268Zm7.147,11.8a11.613,11.613,0,0,0-1.27-4.657q-1.843-3.237-6.151-3.237a6.818,6.818,0,0,0-5.18,2.229,8.419,8.419,0,0,0-2.216,5.665ZM88.9-7.1a3.691,3.691,0,0,0,1.419,3.063,5.263,5.263,0,0,0,3.362,1.121,10.221,10.221,0,0,0,4.582-1.1A6.167,6.167,0,0,0,102-9.961v-3.611a7.669,7.669,0,0,1-2.117.872,18.037,18.037,0,0,1-2.54.5l-2.714.349a10.381,10.381,0,0,0-3.661,1.021A3.977,3.977,0,0,0,88.9-7.1Zm10.857-9.064a2.435,2.435,0,0,0,2.067-1.295,3.94,3.94,0,0,0,.3-1.718,3.64,3.64,0,0,0-1.631-3.324,8.751,8.751,0,0,0-4.669-1.033q-3.511,0-4.98,1.893a6.226,6.226,0,0,0-1.071,3.113H85.589q.125-4.931,3.2-6.861a13.138,13.138,0,0,1,7.135-1.93,14.517,14.517,0,0,1,7.645,1.793,6.083,6.083,0,0,1,2.914,5.578V-4.582a1.967,1.967,0,0,0,.286,1.121,1.381,1.381,0,0,0,1.208.423q.3,0,.672-.037t.8-.112V.125A12.484,12.484,0,0,1,107.852.5a11.647,11.647,0,0,1-1.494.075A3.687,3.687,0,0,1,103-1.071a6.343,6.343,0,0,1-.772-2.465A11.4,11.4,0,0,1,98.29-.423,12.171,12.171,0,0,1,92.637.9a8.406,8.406,0,0,1-6.064-2.254A7.486,7.486,0,0,1,84.22-7a7.265,7.265,0,0,1,2.316-5.752,11.019,11.019,0,0,1,6.076-2.515Zm14.966-17.955h4.532v7.446h4.258v3.661h-4.258V-5.6a1.884,1.884,0,0,0,.946,1.868,4.022,4.022,0,0,0,1.743.274q.324,0,.7-.012t.872-.062V0a10.006,10.006,0,0,1-1.606.324,15.271,15.271,0,0,1-1.805.1q-3.138,0-4.258-1.606a7.138,7.138,0,0,1-1.121-4.171V-23.01h-3.611V-26.67h3.611ZM128-26.546h4.557V0H128Zm0-10.036h4.557v5.08H128ZM141.52-26.67l7.122,21.715,7.446-21.715h4.906L150.933,0h-4.781l-9.836-26.67Zm34.415-.6a12.166,12.166,0,0,1,5.5,1.332,10.149,10.149,0,0,1,4.059,3.449,11.9,11.9,0,0,1,1.793,4.707,30.793,30.793,0,0,1,.4,5.877H168.141a11.407,11.407,0,0,0,1.917,6.512,6.421,6.421,0,0,0,5.553,2.453,7.179,7.179,0,0,0,5.6-2.316,7.807,7.807,0,0,0,1.693-3.113h4.408a9.283,9.283,0,0,1-1.158,3.275,11.647,11.647,0,0,1-2.2,2.951A10.446,10.446,0,0,1,178.9.548a15.357,15.357,0,0,1-3.661.4A11.232,11.232,0,0,1,166.8-2.677q-3.461-3.623-3.461-10.148a15.329,15.329,0,0,1,3.486-10.434A11.5,11.5,0,0,1,175.935-27.268Zm7.147,11.8a11.613,11.613,0,0,0-1.27-4.657q-1.843-3.237-6.151-3.237a6.818,6.818,0,0,0-5.18,2.229,8.419,8.419,0,0,0-2.216,5.665ZM12,18.063,9.057,9.507,5.933,18.063ZM7.686,6.633h2.966L17.679,26H14.805l-1.964-5.8H5.181L3.085,26H.4Zm17.046,5a5.146,5.146,0,0,1,2.9.817A6.515,6.515,0,0,1,29,13.792v-1.78h2.188V24.853A9.469,9.469,0,0,1,30.4,29.1q-1.477,2.874-5.577,2.874a6.841,6.841,0,0,1-3.836-1.022,3.984,3.984,0,0,1-1.74-3.2h2.413a2.685,2.685,0,0,0,.686,1.463,3.5,3.5,0,0,0,2.531.791q2.729,0,3.573-1.925a10.84,10.84,0,0,0,.461-4.047A4.656,4.656,0,0,1,27.2,25.644a5.7,5.7,0,0,1-2.65.527,5.657,5.657,0,0,1-4.014-1.628q-1.72-1.628-1.72-5.385a8.156,8.156,0,0,1,1.734-5.537A5.361,5.361,0,0,1,24.732,11.63ZM29,18.881a5.887,5.887,0,0,0-1.081-3.889,3.464,3.464,0,0,0-2.755-1.266,3.4,3.4,0,0,0-3.428,2.347,9.2,9.2,0,0,0-.488,3.283,5.827,5.827,0,0,0,.969,3.632,3.128,3.128,0,0,0,2.6,1.246,3.655,3.655,0,0,0,3.6-2.307A7.441,7.441,0,0,0,29,18.881Zm11.641-7.317a6.441,6.441,0,0,1,2.914.705A5.373,5.373,0,0,1,45.708,14.1a6.3,6.3,0,0,1,.949,2.492,16.3,16.3,0,0,1,.211,3.111H36.519a6.039,6.039,0,0,0,1.015,3.448,3.4,3.4,0,0,0,2.94,1.3,3.8,3.8,0,0,0,2.966-1.226,4.133,4.133,0,0,0,.9-1.648H46.67a4.915,4.915,0,0,1-.613,1.734,6.166,6.166,0,0,1-1.167,1.562,5.53,5.53,0,0,1-2.676,1.424,8.13,8.13,0,0,1-1.938.211,5.946,5.946,0,0,1-4.469-1.918,7.464,7.464,0,0,1-1.833-5.372,8.115,8.115,0,0,1,1.846-5.524A6.089,6.089,0,0,1,40.645,11.564Zm3.784,6.249a6.148,6.148,0,0,0-.672-2.465A3.446,3.446,0,0,0,40.5,13.634a3.61,3.61,0,0,0-2.742,1.18,4.457,4.457,0,0,0-1.173,3Zm5.353-5.933h2.254v2a6.323,6.323,0,0,1,2.123-1.78,5.66,5.66,0,0,1,2.492-.541q3.006,0,4.061,2.1a7.443,7.443,0,0,1,.58,3.283V26H58.878V17.1a4.819,4.819,0,0,0-.382-2.083A2.318,2.318,0,0,0,56.2,13.7a4.671,4.671,0,0,0-1.384.171,3.565,3.565,0,0,0-1.714,1.16,3.493,3.493,0,0,0-.771,1.444,9.717,9.717,0,0,0-.178,2.129V26H49.781Zm20.461-.409a6.156,6.156,0,0,1,3.883,1.16,5.558,5.558,0,0,1,1.8,3.995H73.617a4.259,4.259,0,0,0-.962-2.169,3.04,3.04,0,0,0-2.413-.864A3.334,3.334,0,0,0,67,15.809a8.8,8.8,0,0,0-.633,3.546,6.674,6.674,0,0,0,.9,3.573,3.475,3.475,0,0,0,5.161.547A4.966,4.966,0,0,0,73.617,21h2.307a6.193,6.193,0,0,1-1.978,4.107,6.17,6.17,0,0,1-4.047,1.3,5.4,5.4,0,0,1-4.417-2.024,7.746,7.746,0,0,1-1.648-5.056,8.518,8.518,0,0,1,1.806-5.788A5.836,5.836,0,0,1,70.242,11.472Zm16.875.409h2.624q-.5,1.358-2.228,6.2-1.292,3.639-2.162,5.933a40.108,40.108,0,0,1-2.9,6.592,3.315,3.315,0,0,1-2.9,1.187,5.691,5.691,0,0,1-.771-.04,6.092,6.092,0,0,1-.666-.145V29.441a8.187,8.187,0,0,0,.9.211,3.5,3.5,0,0,0,.488.04,1.708,1.708,0,0,0,.969-.218,2.007,2.007,0,0,0,.521-.534q.066-.105.475-1.081t.593-1.45L76.834,11.88h2.689l3.784,11.5Z" transform="translate(-0.396 37.578)" fill="#fff"/>
</svg>
