<svg xmlns="http://www.w3.org/2000/svg" width="22.965" height="19.192" viewBox="0 0 22.965 19.192">
  <path id="Path_32" data-name="Path 32" d="M27541.4,1909.951a12.8,12.8,0,0,0,9.684,4.921s-.535-4.182,3.066-5.462c0,0,3.063-1.279,5.109,1.132,0,0,2.383-.394,2.918-1.132a3.8,3.8,0,0,1-1.8,2.562,6.264,6.264,0,0,0,2.578-.594,11.973,11.973,0,0,1-2.156,2.2.17.17,0,0,1-.035.014c-.629.246.684,4.527-3.254,9.6a13.683,13.683,0,0,1-8.566,4.873,11.161,11.161,0,0,1-8.953-1.969,10.107,10.107,0,0,0,6.813-2.116s-3.5-.3-4.328-3.248c0,0,1.605,0,1.945-.049,0,0-3.746-1.28-3.7-4.9a5.4,5.4,0,0,0,1.973.492A5.092,5.092,0,0,1,27541.4,1909.951Z" transform="translate(-27539.988 -1909.071)" fill="#fff"/>
</svg>
